<svg xmlns="http://www.w3.org/2000/svg" xmlns:xlink="http://www.w3.org/1999/xlink" width="24" height="24" viewBox="0 0 24 24">
    <defs>
        <path id="a" d="M17.182 0c.452 0 .818.366.818.818v6.546a2.455 2.455 0 0 1-2.455 2.454h-.755l.63 8.189a1.515 1.515 0 1 1-3.022 0l.63-8.189h-.755a2.455 2.455 0 0 1-2.455-2.454V.818a.818.818 0 1 1 1.637 0v6.546c0 .452.366.818.818.818h3.272a.818.818 0 0 0 .819-.818V.818c0-.452.366-.818.818-.818zm-2.455.818v5.727h-1.636V.818a.818.818 0 0 1 1.636 0zM4.091 0a4.096 4.096 0 0 1 4.09 4.09v1.637A4.09 4.09 0 0 1 4.966 9.72l.637 8.288a1.515 1.515 0 1 1-3.022 0l.637-8.288A4.09 4.09 0 0 1 0 5.727V4.091A4.096 4.096 0 0 1 4.09 0z"/>
    </defs>
    <g fill="none" fill-rule="evenodd" transform="translate(3 2)">
        <mask id="b" fill="#fff">
            <use xlink:href="#a"/>
        </mask>
        <use fill="#111" fill-rule="nonzero" xlink:href="#a"/>
        <g fill="#212121" mask="url(#b)">
            <path d="M-3-2h24v24H-3z"/>
        </g>
    </g>
</svg>
