<svg xmlns="http://www.w3.org/2000/svg" width="240" height="200" viewBox="0 0 240 200">
    <g fill="none" fill-rule="evenodd">
        <path fill-rule="nonzero" d="M0 0h240v200H0z"/>
        <g fill-rule="nonzero">
            <path fill="#3E66B6" d="M188.725 72H74.2a8 8 0 0 0-7.77 9.906l22.076 90a8 8 0 0 0 7.77 6.094H210.8a8 8 0 0 0 7.77-9.906l-22.076-90a8 8 0 0 0-7.77-6.094z"/>
            <path fill="#5E81C8" d="M185.725 72H71.2a8 8 0 0 0-7.77 9.906l22.076 90a8 8 0 0 0 7.77 6.094H207.8a8 8 0 0 0 7.77-9.906l-22.076-90a8 8 0 0 0-7.77-6.094z"/>
        </g>
        <g transform="translate(21 22)">
            <path stroke="#FFD35E" stroke-linecap="round" stroke-linejoin="round" stroke-width="4" d="M0 30h6M8.787 8.787l4.242 4.242M30 0v6M51.213 8.787l-4.242 4.242M60 30h-6M51.213 51.213l-4.242-4.242M30 60v-6M8.787 51.213l4.242-4.242"/>
            <circle cx="30" cy="30" r="16" fill="#FFD35E"/>
        </g>
        <g fill-rule="nonzero">
            <path fill="#B0C9FF" d="M71.275 72H185.8a8 8 0 0 1 7.77 9.906l-22.076 90a8 8 0 0 1-7.77 6.094H49.2a8 8 0 0 1-7.77-9.906l22.076-90A8 8 0 0 1 71.275 72z"/>
            <path fill="#DBE7FF" d="M68.275 72H182.8a8 8 0 0 1 7.77 9.906l-22.076 90a8 8 0 0 1-7.77 6.094H46.2a8 8 0 0 1-7.77-9.906l22.076-90A8 8 0 0 1 68.275 72z"/>
            <path fill="#FAFAFA" d="M73.172 82h99.732a4 4 0 0 1 3.885 4.95l-19.075 78a4 4 0 0 1-3.885 3.05H54.096a4 4 0 0 1-3.885-4.95l19.075-78A4 4 0 0 1 73.172 82z"/>
            <g fill="#212121">
                <path d="M77.045 76.471c-1.003-1.09-1.537-2.833-1.537-5.287 0-3.048 1.404-4.684 3.17-4.684 1.78 0 3.277 2.078 2.9 5.5h3.071c.392-5.272-2.252-8.5-5.97-8.5-3.534 0-6.17 3.073-6.17 7.684 0 3.145.753 5.605 2.327 7.317a1.5 1.5 0 0 0 2.21-2.03zM90.537 76.471C89.534 75.381 89 73.638 89 71.184c0-3.048 1.404-4.684 3.17-4.684 1.78 0 3.277 2.078 2.9 5.5h3.071c.392-5.272-2.253-8.5-5.97-8.5-3.534 0-6.171 3.073-6.171 7.684 0 3.145.754 5.605 2.328 7.317a1.5 1.5 0 1 0 2.209-2.03zM103.537 76.471c-1.003-1.09-1.537-2.833-1.537-5.287 0-3.048 1.404-4.684 3.17-4.684 1.78 0 3.277 2.078 2.9 5.5h3.071c.392-5.272-2.253-8.5-5.97-8.5-3.534 0-6.171 3.073-6.171 7.684 0 3.145.754 5.605 2.328 7.317a1.5 1.5 0 1 0 2.209-2.03zM116.537 76.471c-1.003-1.09-1.537-2.833-1.537-5.287 0-3.048 1.404-4.684 3.17-4.684 1.78 0 3.277 2.078 2.9 5.5h3.071c.392-5.272-2.253-8.5-5.97-8.5-3.534 0-6.171 3.073-6.171 7.684 0 3.145.754 5.605 2.328 7.317a1.5 1.5 0 1 0 2.209-2.03zM129.537 76.471c-1.003-1.09-1.537-2.833-1.537-5.287 0-3.048 1.404-4.684 3.17-4.684 1.78 0 3.277 2.078 2.9 5.5h3.071c.392-5.272-2.253-8.5-5.97-8.5-3.534 0-6.171 3.073-6.171 7.684 0 3.145.754 5.605 2.328 7.317a1.5 1.5 0 1 0 2.209-2.03zM142.537 76.471c-1.003-1.09-1.537-2.833-1.537-5.287 0-3.048 1.404-4.684 3.17-4.684 1.78 0 3.277 2.078 2.9 5.5h3.071c.392-5.272-2.253-8.5-5.97-8.5-3.534 0-6.171 3.073-6.171 7.684 0 3.145.754 5.605 2.328 7.317a1.5 1.5 0 1 0 2.209-2.03zM155.537 76.471c-1.003-1.09-1.537-2.833-1.537-5.287 0-3.048 1.404-4.684 3.17-4.684 1.78 0 3.277 2.078 2.9 5.5h3.071c.392-5.272-2.253-8.5-5.97-8.5-3.534 0-6.171 3.073-6.171 7.684 0 3.145.754 5.605 2.328 7.317a1.5 1.5 0 1 0 2.209-2.03zM168.537 76.471c-1.003-1.09-1.537-2.833-1.537-5.287 0-3.048 1.404-4.684 3.17-4.684 1.78 0 3.277 2.078 2.9 5.5h3.071c.392-5.272-2.253-8.5-5.97-8.5-3.534 0-6.171 3.073-6.171 7.684 0 3.145.754 5.605 2.328 7.317a1.5 1.5 0 1 0 2.209-2.03z"/>
            </g>
            <path fill="#6788D0" d="M91 126.25l3.8-3.75 8.233 5s10.666-10.469 24.7-17.5l1.267 4.375s-15.027 8.722-25.967 25.625L91 126.25z"/>
        </g>
    </g>
</svg>
